# xmcd
# Copyright (C) 1995-1998 Ti Kan
#
# Track frame offsets:
#       150
#       82902
#       101997
#       134525
#       160864
#       199911
#       216042
#       253905
#       279237
#
# Disc length: 3936 seconds
#
# Revision: 0
# Processed by: cddbd v1.5.2PL0 Copyright (c) Steve Scherf et al.
# Submitted via: CD-Import v1.0
#
DISCID=810f5e09
DTITLE=Dieter Meier - Dieter Meier Liest: Hermes Baby
DYEAR=08
DGENRE=
TTITLE0=Knokke
TTITLE1=Yello - Die Wurzeln Des Unkrauts
TTITLE2=300'000 Jahre Techno - Ein Jubiläum
TTITLE3=Spiess Und Spiesser
TTITLE4=La Conquete De L'inutile
TTITLE5=Die Rasur
TTITLE6=Philip Seymour Hoffman Ist Truman Capote - Eine Hymne
TTITLE7=Ich Habe Einen Traum
TTITLE8=Kuss Und Schluss
EXTD=
EXTT0=
EXTT1=
EXTT2=
EXTT3=
EXTT4=
EXTT5=
EXTT6=
EXTT7=
EXTT8=
PLAYORDER=
